<?xml version="1.0" encoding="utf-8"?>
<!-- Generator: Adobe Illustrator 22.0.1, SVG Export Plug-In . SVG Version: 6.00 Build 0)  -->
<svg version="1.1" id="Layer_1" xmlns="http://www.w3.org/2000/svg" xmlns:xlink="http://www.w3.org/1999/xlink" x="0px" y="0px"
	 viewBox="0 0 1080 375" style="enable-background:new 0 0 1080 375;" xml:space="preserve">
<style type="text/css">
	.st0{fill:#4C2C1B;}
	.st1{fill:#CA5E32;}
</style>
<g>
	<g>
		<path class="st0" d="M558.6,273.3c0,6,0,10.9,0,16.2c-6.9,0-13.7,0-20.8,0c0-63.1,0-136.3,0-199.7c6.6,0,13.2,0,20.5,0
			c0,23.4,0,56.9,0,81.1c4.8-3.5,8.7-6.9,12.8-9.6c39.3-24.2,90.6-1.9,99.5,43.6c5.8,29-0.8,54.4-24.2,73.6
			c-24.9,20.5-60.4,19.1-84.7-2.3C561.2,275.6,560.4,274.7,558.6,273.3z M651.1,222.6c0-0.9,0-2,0-2.9
			c-0.9-32.5-28.8-54.1-58.9-45.6c-21,5.9-35,26.3-34.2,50.3c0.9,32.2,31.1,54.5,61.4,45.4C639,264,651.1,245.9,651.1,222.6z"/>
		<path class="st0" d="M695,167c23.3-12.6,47.2-18.5,72.8-11.8c22.9,6,35.7,23.3,36.2,49.4c0.3,27.8,0.3,85.3,0.3,85.3
			c-6.7,0-13.8,0-20.9,0c0-3.8,0-7.5,0-12.4c-2.3,1.6-3.7,2.5-5,3.4c-21.2,13.8-43.7,16-66.7,6.4c-16.9-6.9-26.2-20.1-26.2-38.7
			c0-18.7,9.5-31.7,26.1-39.5c14.3-6.8,29.9-7.8,45.4-6.4c8.7,0.8,17.2,2.4,25.8,3.5c2.1-16.1-9.2-29.6-26.6-32.1
			c-16.2-2.4-31.2,1.3-45.8,8.4c-2.1,1-4.3,2.1-6.9,3.4L695,167z M747.4,221.8c-5.3,0.3-18.7,1.9-26.2,5.4
			c-9.3,4.1-14.5,12.2-14.1,21.9c0.5,10,6.3,16.7,15.4,19.5c6.9,2.1,14.6,3.2,21.7,2.8c24.3-1.2,39.5-17.1,39.1-39.8
			c0-3.2-1.3-4.2-3.7-5.4C772.9,224.6,764.7,221.8,747.4,221.8z"/>
		<path class="st0" d="M953.6,89.7c6.8,0,13.4,0,20.5,0c0,41.1,0,92,0,134.4c3.5-3.2,72.1-69.6,72.1-69.6h29.4
			c-21.6,20.9-42.4,40.8-63.4,60.9c21.4,24.6,42.7,49.1,64.7,74.5h-27.3c0,0-49.9-57.1-52.5-59.9c-7.5,7.1-22.9,22.3-22.9,22.3
			s0,25.5,0,37c-6.9,0-13.7,0-20.7,0C953.8,226.4,953.6,153.1,953.6,89.7z"/>
		<path class="st0" d="M840.8,289.7c-7.1,0-13.7,0-20.7,0c0-44.9,0-89.8,0-134.9c6.7,0,13.3,0,20.7,0c0,4.1,0,7.9,0,12.5
			c1.7-1.3,2.8-2,3.7-2.8c19-16.2,50.7-17.6,71.1-2.9c14.6,10.7,21.9,26.1,22.4,43.4v84.6c-6.6,0-14.2,0-21.2,0l-0.1-82.8
			c-0.4-16.7-10.3-29.5-24.2-32.9c-27.8-7.3-51.5,11.7-51.6,41.8C840.8,215.6,840.8,287.6,840.8,289.7z"/>
	</g>
	<path class="st0" d="M3.2,220.7H50c0.1,1.8,0.3,6,0.8,8.1c2.4,9.3,7.3,15.3,16.4,18c10.6,3.2,21.4,3,31.9-0.8
		c3.5-1.2,6.5-3.2,9.2-5.6c5.2-4.8,5.9-12.7,1.7-17.8c-1.8-2.2-4.2-3.5-6.7-4.8c-5.2-2.6-10.9-3.9-16.5-5.3c-11.4-3-22.8-5.8-34.2-9
		c-10.6-3-20.3-8.1-28.5-15.6c-8.4-7.6-13.1-17.2-14.8-28.3c-1.3-8.6-1.2-17.1,1.2-25.4c3.1-10.9,9.2-19.9,17.8-27.3
		c11.3-9.8,24.5-15.4,39.3-17.5c11.5-1.6,22.8-1.5,34.2,0.7c7.9,1.5,15.3,4.1,22.5,7.7c11.1,5.7,18.8,14.5,24.5,25.3
		c4.5,8.5,6.4,18.6,6.8,27.3l-46.8-0.1c-0.5-4.1-1.5-11.1-6.4-14.6c-3.1-2.2-6.2-3.2-9.8-4c-9.5-2.2-18.7-1.5-27.5,2.5
		c-3.9,1.7-7.2,4.2-9.1,8.2c-2.7,5.5-1.1,11.2,4.1,14.7c5.1,3.5,10.9,5.3,16.9,6.9c11.6,3,23.3,5.8,34.9,9
		c10.7,3,20.6,7.5,29.3,14.4c10.4,8.2,16.3,19.1,18,32.3c1.4,11,0.3,21.7-4.3,31.9c-4.2,9.3-10.7,16.7-18.9,22.8
		c-10.4,7.9-22.3,12.5-35.1,14.9c-7,1.3-14.2,1.7-21.3,1.7c-13.8-0.1-27.2-2.4-39.8-8.4c-12.4-5.8-22.3-14.3-29-26.4
		c-4.1-7.4-6.1-15.4-6.8-23.9C3.5,229.1,3.3,226.1,3.2,220.7z"/>
	<path class="st1" d="M191.2,48h283.6v283.6H191.2V48z M399.2,169.6c3.2-6.6,4.8-13.6,5.2-20.8c0.6-11.7-2.1-22.5-9.1-32
		c-12.8-17-31.9-25.4-52.8-27.9c-7.6-0.9-15.3-0.6-22.8,0.2c-11,1.2-21.3,4.3-30.8,10c-11.1,6.6-19.7,15.4-25,27.3
		c-2.8,6.2-4.1,12.8-4.8,19.6c-0.1,1.1-0.3,2.9-0.5,4.9h46.8c0-0.2,0-0.4,0-0.5c0.3-6.8,5.2-13.5,11.5-16.3
		c9.1-4.1,19.4-3.8,28.7-0.1c12.4,4.9,11.7,23.8,3.7,29.1c-3.7,3-9.6,3.4-14.8,3.4c-5.9,0.1-12.8,0.1-18.6,0.1h-14
		c0,14.7,0,24.8,0,39.3c0,0,31.1-0.1,30.9-0.1c3,0,5.9,0.1,8.8,0.6c7.3,1.2,10.8,4.1,14.2,7c5.8,5.1,7.1,18.1,1.6,25
		c-2.8,3.3-6.4,5.3-10.4,6.7c-7,2.4-14.2,2.6-21.5,1.7c-5.3-0.7-10.5-1.9-14.9-5c-2.8-2.1-5.1-3.9-7.1-8.4c-0.6-1.8-1-3.7-1.3-5.6
		c-0.3-2.1-0.5-3.7-0.6-6.6h-46.8c0.1,3.9,0.3,7.3,0.5,10.5c0.5,7.9,2.2,15.4,5.7,22.5c4.9,9.8,12.3,17.4,21.3,23.4
		c12.9,8.8,27.6,12.5,43,13.6c7.8,0.6,15.6,0.1,23.4-1c14.7-2.1,27.9-7.6,39.4-16.7c9.1-7.2,16.1-16,19.9-27
		c3-8.8,3.5-17.7,2.2-26.8c-1.7-12-6.9-22.2-15.9-30.4c-2.2-1.9-4.5-3.7-6.9-5.7C388,183.1,396.9,174.4,399.2,169.6z"/>
</g>
</svg>
